<svg xmlns="http://www.w3.org/2000/svg" xmlns:xlink="http://www.w3.org/1999/xlink" width="1000" zoomAndPan="magnify" viewBox="0 0 750 749.999995" height="1000" preserveAspectRatio="xMidYMid meet" version="1.0"><rect x="-75" width="900" fill="#ffffff" y="-74.999999" height="899.999994" fill-opacity="1"/><rect x="-75" width="900" fill="#ffeffd" y="-74.999999" height="899.999994" fill-opacity="1"/><path fill="#fe6735" d="M 475.710938 287.054688 C 550.125 377.398438 703.378906 377.175781 703.378906 377.175781 C 703.378906 377.175781 540.855469 384.898438 443.925781 467.296875 C 339.824219 555.796875 310.859375 710.851562 310.859375 710.851562 C 310.859375 710.851562 338.101562 557.640625 263.683594 467.296875 C 188.550781 376.066406 36.015625 377.175781 36.015625 377.175781 C 36.015625 377.175781 191.371094 375.539062 295.46875 287.054688 C 404.953125 193.980469 428.535156 43.5 428.535156 43.5 C 428.535156 43.5 400.574219 195.824219 475.710938 287.054688 Z M 475.710938 287.054688 " fill-opacity="1" fill-rule="nonzero"/></svg>