<svg xmlns="http://www.w3.org/2000/svg" xmlns:xlink="http://www.w3.org/1999/xlink" width="770" zoomAndPan="magnify" viewBox="0 0 577.5 225" height="300" preserveAspectRatio="xMidYMid meet" version="1.0"><path fill="#fe6735" d="M 16.972656 165.203125 C 7.726562 160.84375 3.015625 154.890625 2.828125 147.347656 C 2.609375 143.6875 3.664062 140.136719 6 136.683594 C 8.328125 133.242188 11.585938 130.65625 15.773438 128.929688 C 19.949219 127.214844 24.46875 126.933594 29.316406 128.132812 C 33.789062 129.101562 37.570312 130.828125 40.683594 133.300781 C 43.792969 135.777344 46.316406 138.445312 48.238281 141.296875 C 50.160156 144.164062 52.230469 147.789062 54.472656 152.210938 C 56.492188 155.980469 58.242188 158.921875 59.699219 161.015625 C 61.171875 163.109375 63.019531 164.628906 65.285156 165.535156 C 67.550781 166.441406 70.246094 166.539062 73.402344 165.777344 C 75.867188 165.238281 77.921875 164.234375 79.589844 162.789062 C 81.253906 161.34375 82.480469 159.691406 83.285156 157.855469 C 84.09375 156.03125 84.449219 154.144531 84.363281 152.199219 C 84.191406 148.867188 82.417969 146 79 143.636719 C 75.585938 141.273438 70.234375 138.519531 62.921875 135.394531 C 55.511719 132.164062 50.296875 129.738281 47.234375 128.132812 C 33.714844 121.128906 24.726562 114.074219 20.269531 106.960938 C 15.8125 99.859375 14.464844 91.875 16.238281 83.042969 C 17.746094 75.722656 21.503906 69.546875 27.507812 64.539062 C 33.507812 59.53125 40.855469 55.84375 49.574219 53.46875 C 58.28125 51.105469 67.5 50.140625 77.226562 50.566406 C 84.070312 50.886719 90.5625 52.050781 96.734375 54.03125 C 102.894531 56.027344 107.753906 58.746094 111.292969 62.199219 C 114.832031 65.640625 116.230469 69.464844 115.492188 73.664062 C 115.089844 75.929688 114.109375 78.132812 112.554688 80.289062 C 111 82.445312 108.894531 84.242188 106.273438 85.703125 C 103.640625 87.160156 100.613281 87.832031 97.1875 87.722656 C 93.414062 87.722656 90.242188 86.914062 87.671875 85.296875 C 85.097656 83.679688 83.078125 81.746094 81.585938 79.480469 C 80.089844 77.214844 78.300781 74.152344 76.183594 70.269531 C 73.882812 65.640625 71.726562 62.226562 69.753906 60.019531 C 67.769531 57.816406 65.125 56.605469 61.832031 56.382812 C 58.097656 56.164062 54.925781 56.652344 52.292969 57.839844 C 49.660156 59.03125 47.6875 60.558594 46.390625 62.445312 C 45.078125 64.332031 44.480469 66.242188 44.566406 68.1875 C 44.75 71.421875 46.660156 74.140625 50.320312 76.34375 C 53.96875 78.550781 59.933594 81.21875 68.210938 84.34375 C 71.433594 85.640625 74.554688 86.878906 77.578125 88.066406 C 87.535156 92.042969 95.117188 96.464844 100.285156 101.316406 C 105.464844 106.164062 108.769531 111.417969 110.191406 117.0625 C 111.613281 122.722656 111.539062 129.101562 109.957031 136.203125 C 108.230469 144.175781 104.496094 150.960938 98.777344 156.570312 C 93.046875 162.164062 85.957031 166.34375 77.507812 169.097656 C 69.042969 171.839844 60.117188 172.992188 50.722656 172.5625 C 37.460938 172.023438 26.207031 169.574219 16.960938 165.214844 Z M 16.972656 165.203125 " fill-opacity="1" fill-rule="nonzero"/><path fill="#fe6735" d="M 290.625 110.132812 C 289.585938 109.824219 288.53125 109.542969 287.453125 109.273438 C 288.152344 109.117188 288.851562 108.96875 289.523438 108.796875 C 297.128906 106.910156 303.519531 103.777344 308.6875 99.378906 C 313.84375 94.996094 317.066406 89.191406 318.339844 81.964844 C 319.613281 74.742188 318.410156 69.082031 314.871094 64.296875 C 311.320312 59.519531 306.054688 56.015625 299.0625 53.800781 C 292.058594 51.570312 284.0625 50.46875 275.074219 50.46875 L 195.242188 50.46875 L 194.628906 53.972656 C 197.296875 53.972656 199.488281 54.867188 201.242188 56.640625 C 202.992188 58.417969 204.179688 60.78125 204.828125 63.71875 C 205.476562 66.660156 205.492188 69.867188 204.890625 73.308594 L 198.949219 106.984375 L 183.105469 106.984375 C 178.390625 106.984375 173.160156 102.710938 169.425781 98.167969 C 160.742188 87.625 163.191406 70.699219 163.570312 68.445312 C 163.167969 70.699219 159.789062 87.5 147.234375 98.167969 C 134.941406 108.625 115.296875 109.261719 115.296875 109.261719 C 115.296875 109.261719 134.585938 109.753906 143.328125 120.359375 C 152.414062 131.390625 149.132812 150.347656 149.132812 150.347656 C 149.132812 150.347656 153.050781 130.964844 165.519531 120.359375 C 170.761719 115.898438 177.667969 111.429688 183.128906 111.429688 L 198.144531 111.652344 L 191.445312 149.652344 C 190.832031 153.089844 189.691406 156.289062 188.003906 159.238281 C 186.3125 162.191406 184.28125 164.554688 181.917969 166.328125 C 179.554688 168.105469 177.03125 169 174.359375 169 L 173.75 172.5 L 255.589844 172.5 C 264.371094 172.5 272.609375 171.449219 280.3125 169.328125 C 288.027344 167.222656 294.640625 163.722656 300.164062 158.835938 C 305.6875 153.949219 309.152344 147.554688 310.539062 139.667969 C 311.910156 131.894531 310.695312 125.5625 306.886719 120.664062 C 303.078125 115.777344 297.667969 112.273438 290.648438 110.167969 Z M 257.707031 55.292969 C 262.8125 55.292969 266.769531 57.460938 269.5625 61.796875 C 272.355469 66.132812 273.003906 72.523438 271.507812 80.960938 C 269.90625 90.074219 266.992188 96.6875 262.765625 100.789062 C 258.539062 104.902344 253.765625 106.960938 248.425781 106.960938 L 243.429688 106.960938 L 252.539062 55.292969 Z M 253.140625 161.136719 C 248.757812 165.472656 243.734375 167.640625 238.078125 167.640625 L 232.75 167.640625 L 242.621094 111.636719 L 247.949219 111.636719 C 251.390625 111.636719 254.390625 112.628906 256.925781 114.640625 C 259.460938 116.636719 261.285156 119.695312 262.398438 123.8125 C 263.5 127.925781 263.550781 132.859375 262.53125 138.640625 C 260.648438 149.308594 257.523438 156.8125 253.152344 161.136719 Z M 253.140625 161.136719 " fill-opacity="1" fill-rule="nonzero"/><path fill="#fe6735" d="M 333.191406 49.785156 L 332.582031 53.285156 C 335.25 53.285156 337.417969 54.179688 339.109375 55.957031 C 340.796875 57.730469 341.960938 60.09375 342.609375 63.035156 C 343.257812 65.972656 343.269531 69.179688 342.671875 72.621094 L 329.210938 148.953125 C 328.601562 152.394531 327.460938 155.589844 325.773438 158.542969 C 324.082031 161.492188 322.085938 163.855469 319.769531 165.632812 C 317.457031 167.40625 314.96875 168.300781 312.300781 168.300781 L 311.6875 171.804688 L 389.855469 171.804688 L 390.46875 168.300781 C 386.574219 168.300781 383.253906 167.40625 380.523438 165.632812 C 377.78125 163.855469 375.808594 161.492188 374.609375 158.542969 C 373.410156 155.601562 373.101562 152.40625 373.714844 148.953125 L 380.242188 111.957031 L 383.070312 111.957031 C 389.144531 112.175781 393.824219 112.984375 397.140625 114.382812 C 400.449219 115.777344 402.800781 118.65625 404.195312 123.050781 C 405.578125 127.4375 405.492188 134.074219 403.9375 142.964844 L 408.101562 142.964844 L 419.648438 77.472656 L 415.816406 77.472656 C 414.617188 84.257812 412.472656 89.9375 409.386719 94.554688 C 406.300781 99.171875 402.554688 102.589844 398.171875 104.804688 C 393.773438 107.035156 388.949219 108.246094 383.683594 108.480469 L 380.855469 108.480469 L 388.324219 66.144531 C 388.886719 62.921875 390.113281 60.121094 391.972656 57.730469 C 393.835938 55.34375 396.601562 54.144531 400.265625 54.144531 C 403.265625 54.144531 406.070312 54.597656 408.703125 55.476562 C 414.164062 57.253906 418.707031 60.644531 422.320312 65.640625 C 425.945312 70.640625 428.785156 76.566406 430.867188 83.386719 C 432.9375 90.21875 434.273438 97.59375 434.882812 105.480469 L 438.386719 105.480469 L 444.707031 49.808594 L 333.203125 49.808594 Z M 333.191406 49.785156 " fill-opacity="1" fill-rule="nonzero"/><path fill="#fe6735" d="M 567.582031 49.785156 L 456.082031 49.785156 L 455.46875 53.285156 C 458.140625 53.285156 460.308594 54.179688 461.996094 55.957031 C 463.6875 57.730469 464.851562 60.09375 465.5 63.035156 C 466.148438 65.972656 466.160156 69.179688 465.5625 72.621094 L 452.101562 148.953125 C 451.488281 152.394531 450.351562 155.589844 448.660156 158.542969 C 446.972656 161.492188 444.976562 163.855469 442.660156 165.632812 C 440.347656 167.40625 437.859375 168.300781 435.191406 168.300781 L 434.578125 171.804688 L 512.746094 171.804688 L 513.355469 168.300781 C 509.460938 168.300781 506.144531 167.40625 503.414062 165.632812 C 500.671875 163.855469 498.699219 161.492188 497.5 158.542969 C 496.296875 155.601562 495.992188 152.40625 496.605469 148.953125 L 503.132812 111.957031 L 505.960938 111.957031 C 512.035156 112.175781 516.710938 112.984375 520.03125 114.382812 C 523.335938 115.777344 525.6875 118.65625 527.085938 123.050781 C 528.46875 127.4375 528.382812 134.074219 526.828125 142.964844 L 530.992188 142.964844 L 542.539062 77.472656 L 538.707031 77.472656 C 537.507812 84.257812 535.363281 89.9375 532.277344 94.554688 C 529.191406 99.171875 525.445312 102.589844 521.058594 104.804688 C 516.664062 107.035156 511.839844 108.246094 506.574219 108.480469 L 503.742188 108.480469 L 511.214844 66.144531 C 511.777344 62.921875 513.003906 60.121094 514.863281 57.730469 C 516.726562 55.34375 519.492188 54.144531 523.152344 54.144531 C 526.15625 54.144531 528.957031 54.597656 531.589844 55.476562 C 537.054688 57.253906 541.597656 60.644531 545.210938 65.640625 C 548.835938 70.640625 551.675781 76.566406 553.757812 83.386719 C 555.828125 90.21875 557.160156 97.59375 557.773438 105.480469 L 561.277344 105.480469 L 567.59375 49.808594 Z M 567.582031 49.785156 " fill-opacity="1" fill-rule="nonzero"/><path fill="#fe6735" d="M 163.585938 68.175781 C 163.585938 68.175781 163.570312 68.273438 163.535156 68.433594 C 163.558594 68.261719 163.585938 68.175781 163.585938 68.175781 Z M 163.585938 68.175781 " fill-opacity="1" fill-rule="nonzero"/></svg>