<svg xmlns="http://www.w3.org/2000/svg" xmlns:xlink="http://www.w3.org/1999/xlink" width="1000" zoomAndPan="magnify" viewBox="0 0 750 231.75" height="309" preserveAspectRatio="xMidYMid meet" version="1.0"><path fill="#fe6735" d="M 40.792969 163.042969 C 32.738281 159.242188 28.628906 154.058594 28.46875 147.484375 C 28.277344 144.296875 29.195312 141.203125 31.234375 138.191406 C 33.257812 135.195312 36.097656 132.941406 39.746094 131.4375 C 43.382812 129.945312 47.320312 129.699219 51.546875 130.746094 C 55.441406 131.589844 58.738281 133.09375 61.449219 135.246094 C 64.15625 137.402344 66.355469 139.730469 68.03125 142.214844 C 69.707031 144.710938 71.507812 147.871094 73.460938 151.722656 C 75.222656 155.007812 76.746094 157.566406 78.015625 159.390625 C 79.296875 161.214844 80.910156 162.539062 82.882812 163.328125 C 84.855469 164.117188 87.203125 164.203125 89.957031 163.542969 C 92.101562 163.074219 93.894531 162.199219 95.34375 160.9375 C 96.792969 159.679688 97.863281 158.238281 98.566406 156.640625 C 99.269531 155.050781 99.578125 153.40625 99.503906 151.710938 C 99.355469 148.808594 97.808594 146.3125 94.832031 144.253906 C 91.867188 142.195312 87.191406 139.792969 80.824219 137.074219 C 74.367188 134.253906 69.824219 132.144531 67.15625 130.746094 C 55.375 124.644531 47.546875 118.496094 43.664062 112.296875 C 39.777344 106.109375 38.605469 99.152344 40.152344 91.460938 C 41.464844 85.082031 44.738281 79.703125 49.96875 75.339844 C 55.195312 70.976562 61.597656 67.765625 69.195312 65.695312 C 76.78125 63.636719 84.8125 62.792969 93.285156 63.167969 C 99.25 63.445312 104.902344 64.457031 110.28125 66.1875 C 115.648438 67.925781 119.882812 70.292969 122.964844 73.300781 C 126.050781 76.300781 127.265625 79.628906 126.625 83.289062 C 126.273438 85.261719 125.421875 87.183594 124.066406 89.0625 C 122.710938 90.9375 120.875 92.507812 118.59375 93.777344 C 116.296875 95.046875 113.664062 95.632812 110.675781 95.535156 C 107.390625 95.535156 104.625 94.832031 102.386719 93.425781 C 100.144531 92.015625 98.382812 90.332031 97.082031 88.355469 C 95.78125 86.382812 94.222656 83.714844 92.378906 80.332031 C 90.371094 76.300781 88.492188 73.324219 86.777344 71.402344 C 85.046875 69.484375 82.742188 68.425781 79.875 68.234375 C 76.621094 68.042969 73.855469 68.46875 71.5625 69.503906 C 69.269531 70.539062 67.550781 71.871094 66.417969 73.515625 C 65.277344 75.160156 64.753906 76.824219 64.828125 78.519531 C 64.988281 81.335938 66.652344 83.703125 69.84375 85.625 C 73.023438 87.546875 78.21875 89.871094 85.433594 92.59375 C 88.238281 93.722656 90.957031 94.800781 93.59375 95.835938 C 102.269531 99.304688 108.871094 103.15625 113.375 107.378906 C 117.886719 111.605469 120.769531 116.183594 122.007812 121.101562 C 123.242188 126.03125 123.179688 131.589844 121.804688 137.777344 C 120.300781 144.722656 117.042969 150.632812 112.0625 155.519531 C 107.070312 160.394531 100.890625 164.035156 93.53125 166.433594 C 86.15625 168.824219 78.378906 169.828125 70.195312 169.453125 C 58.640625 168.984375 48.835938 166.851562 40.78125 163.050781 Z M 40.792969 163.042969 " fill-opacity="1" fill-rule="nonzero"/><path fill="#fe6735" d="M 279.207031 115.074219 C 278.300781 114.804688 277.382812 114.558594 276.441406 114.324219 C 277.050781 114.1875 277.660156 114.058594 278.246094 113.910156 C 284.871094 112.265625 290.441406 109.535156 294.941406 105.703125 C 299.433594 101.886719 302.242188 96.828125 303.351562 90.535156 C 304.460938 84.238281 303.414062 79.308594 300.332031 75.136719 C 297.238281 70.976562 292.648438 67.925781 286.558594 65.992188 C 280.453125 64.050781 273.488281 63.09375 265.65625 63.09375 L 196.105469 63.09375 L 195.570312 66.144531 C 197.894531 66.144531 199.804688 66.921875 201.332031 68.46875 C 202.855469 70.015625 203.890625 72.074219 204.457031 74.636719 C 205.023438 77.195312 205.035156 79.992188 204.511719 82.988281 L 199.335938 112.332031 L 185.53125 112.332031 C 181.421875 112.332031 176.867188 108.605469 173.613281 104.648438 C 166.046875 95.460938 168.183594 80.71875 168.511719 78.753906 C 168.160156 80.71875 165.214844 95.355469 154.28125 104.648438 C 143.570312 113.761719 126.457031 114.316406 126.457031 114.316406 C 126.457031 114.316406 143.257812 114.742188 150.875 123.980469 C 158.792969 133.59375 155.933594 150.109375 155.933594 150.109375 C 155.933594 150.109375 159.347656 133.222656 170.210938 123.980469 C 174.777344 120.097656 180.792969 116.203125 185.550781 116.203125 L 198.632812 116.394531 L 192.796875 149.5 C 192.261719 152.5 191.269531 155.285156 189.796875 157.855469 C 188.324219 160.425781 186.554688 162.484375 184.496094 164.035156 C 182.4375 165.582031 180.238281 166.359375 177.914062 166.359375 L 177.378906 169.410156 L 248.679688 169.410156 C 256.332031 169.410156 263.511719 168.492188 270.222656 166.648438 C 276.945312 164.8125 282.707031 161.761719 287.515625 157.503906 C 292.328125 153.246094 295.347656 147.675781 296.554688 140.804688 C 297.75 134.03125 296.691406 128.515625 293.375 124.246094 C 290.058594 119.992188 285.339844 116.941406 279.226562 115.105469 Z M 250.527344 67.296875 C 254.976562 67.296875 258.421875 69.183594 260.855469 72.960938 C 263.289062 76.738281 263.851562 82.308594 262.550781 89.660156 C 261.152344 97.597656 258.613281 103.359375 254.933594 106.933594 C 251.253906 110.515625 247.09375 112.308594 242.441406 112.308594 L 238.085938 112.308594 L 246.023438 67.296875 Z M 246.535156 159.5 C 242.71875 163.277344 238.34375 165.164062 233.414062 165.164062 L 228.773438 165.164062 L 237.371094 116.375 L 242.011719 116.375 C 245.011719 116.375 247.625 117.238281 249.832031 118.988281 C 252.042969 120.726562 253.632812 123.394531 254.601562 126.980469 C 255.5625 130.5625 255.605469 134.863281 254.71875 139.898438 C 253.078125 149.191406 250.355469 155.734375 246.546875 159.5 Z M 246.535156 159.5 " fill-opacity="1" fill-rule="nonzero"/><path fill="#fe6735" d="M 316.292969 62.484375 L 315.757812 65.535156 C 318.085938 65.535156 319.972656 66.3125 321.445312 67.859375 C 322.917969 69.410156 323.929688 71.46875 324.496094 74.027344 C 325.0625 76.589844 325.074219 79.382812 324.550781 82.382812 L 312.824219 148.882812 C 312.292969 151.882812 311.300781 154.664062 309.828125 157.238281 C 308.355469 159.808594 306.617188 161.867188 304.597656 163.414062 C 302.582031 164.960938 300.417969 165.742188 298.089844 165.742188 L 297.558594 168.792969 L 365.660156 168.792969 L 366.191406 165.742188 C 362.800781 165.742188 359.90625 164.960938 357.527344 163.414062 C 355.140625 161.867188 353.421875 159.808594 352.375 157.238281 C 351.328125 154.675781 351.0625 151.890625 351.597656 148.882812 L 357.285156 116.652344 L 359.746094 116.652344 C 365.039062 116.84375 369.117188 117.546875 372.007812 118.765625 C 374.886719 119.980469 376.9375 122.488281 378.152344 126.316406 C 379.359375 130.136719 379.285156 135.921875 377.929688 143.664062 L 381.554688 143.664062 L 391.617188 86.605469 L 388.277344 86.605469 C 387.230469 92.519531 385.363281 97.46875 382.675781 101.492188 C 379.988281 105.511719 376.722656 108.488281 372.902344 110.421875 C 369.074219 112.363281 364.871094 113.417969 360.28125 113.621094 L 357.816406 113.621094 L 364.324219 76.738281 C 364.816406 73.933594 365.882812 71.488281 367.503906 69.40625 C 369.125 67.328125 371.539062 66.28125 374.726562 66.28125 C 377.339844 66.28125 379.785156 66.675781 382.078125 67.445312 C 386.835938 68.992188 390.796875 71.949219 393.941406 76.300781 C 397.101562 80.652344 399.574219 85.816406 401.390625 91.761719 C 403.191406 97.714844 404.355469 104.136719 404.890625 111.007812 L 407.941406 111.007812 L 413.445312 62.503906 L 316.304688 62.503906 Z M 316.292969 62.484375 " fill-opacity="1" fill-rule="nonzero"/><path fill="#fe6735" d="M 520.5 62.484375 L 423.359375 62.484375 L 422.824219 65.535156 C 425.148438 65.535156 427.039062 66.3125 428.511719 67.859375 C 429.984375 69.410156 430.996094 71.46875 431.5625 74.027344 C 432.128906 76.589844 432.136719 79.382812 431.617188 82.382812 L 419.890625 148.882812 C 419.355469 151.882812 418.363281 154.664062 416.890625 157.238281 C 415.417969 159.808594 413.679688 161.867188 411.664062 163.414062 C 409.648438 164.960938 407.480469 165.742188 405.15625 165.742188 L 404.621094 168.792969 L 472.722656 168.792969 L 473.257812 165.742188 C 469.863281 165.742188 466.972656 164.960938 464.59375 163.414062 C 462.203125 161.867188 460.488281 159.808594 459.441406 157.238281 C 458.394531 154.675781 458.128906 151.890625 458.664062 148.882812 L 464.347656 116.652344 L 466.8125 116.652344 C 472.105469 116.84375 476.179688 117.546875 479.074219 118.765625 C 481.953125 119.980469 484 122.488281 485.21875 126.316406 C 486.421875 130.136719 486.347656 135.921875 484.992188 143.664062 L 488.621094 143.664062 L 498.683594 86.605469 L 495.34375 86.605469 C 494.296875 92.519531 492.429688 97.46875 489.742188 101.492188 C 487.054688 105.511719 483.789062 108.488281 479.96875 110.421875 C 476.136719 112.363281 471.933594 113.417969 467.347656 113.621094 L 464.882812 113.621094 L 471.390625 76.738281 C 471.882812 73.933594 472.949219 71.488281 474.570312 69.40625 C 476.191406 67.328125 478.601562 66.28125 481.792969 66.28125 C 484.40625 66.28125 486.851562 66.675781 489.144531 67.445312 C 493.902344 68.992188 497.859375 71.949219 501.007812 76.300781 C 504.167969 80.652344 506.640625 85.816406 508.457031 91.761719 C 510.257812 97.714844 511.421875 104.136719 511.953125 111.007812 L 515.007812 111.007812 L 520.511719 62.503906 Z M 520.5 62.484375 " fill-opacity="1" fill-rule="nonzero"/><path fill="#fe6735" d="M 168.523438 78.507812 C 168.523438 78.507812 168.511719 78.59375 168.480469 78.734375 C 168.503906 78.582031 168.523438 78.507812 168.523438 78.507812 Z M 168.523438 78.507812 " fill-opacity="1" fill-rule="nonzero"/><path fill="#fe6735" d="M 546.980469 80.71875 L 534.667969 62.484375 L 542.90625 62.484375 L 550.554688 74.5625 L 558.324219 62.484375 L 566.335938 62.484375 L 554.023438 80.589844 L 554.023438 92.582031 L 546.972656 92.582031 L 546.972656 80.71875 Z M 546.980469 80.71875 " fill-opacity="1" fill-rule="nonzero"/><path fill="#fe6735" d="M 586.308594 93.09375 C 583.832031 93.09375 581.5625 92.6875 579.492188 91.878906 C 577.410156 91.054688 575.617188 89.957031 574.101562 88.558594 C 572.597656 87.171875 571.425781 85.539062 570.582031 83.664062 C 569.738281 81.785156 569.324219 79.777344 569.324219 77.625 L 569.324219 77.539062 C 569.324219 75.394531 569.75 73.378906 570.605469 71.5 C 571.457031 69.621094 572.628906 67.96875 574.144531 66.558594 C 575.660156 65.140625 577.464844 64.019531 579.542969 63.210938 C 581.636719 62.386719 583.917969 61.984375 586.394531 61.984375 C 588.871094 61.984375 591.140625 62.386719 593.210938 63.210938 C 595.28125 64.019531 597.074219 65.128906 598.589844 66.515625 C 600.105469 67.902344 601.277344 69.546875 602.121094 71.425781 C 602.964844 73.300781 603.378906 75.308594 603.378906 77.464844 L 603.378906 77.546875 C 603.378906 79.691406 602.953125 81.710938 602.089844 83.585938 C 601.234375 85.464844 600.050781 87.109375 598.535156 88.527344 C 597.03125 89.945312 595.226562 91.054688 593.148438 91.878906 C 591.054688 92.6875 588.773438 93.09375 586.308594 93.09375 Z M 586.394531 87 C 587.792969 87 589.09375 86.757812 590.277344 86.277344 C 591.460938 85.785156 592.476562 85.113281 593.316406 84.257812 C 594.160156 83.394531 594.8125 82.402344 595.28125 81.273438 C 595.761719 80.140625 595.996094 78.925781 595.996094 77.632812 L 595.996094 77.546875 C 595.996094 76.257812 595.761719 75.042969 595.28125 73.898438 C 594.8125 72.746094 594.140625 71.746094 593.265625 70.890625 C 592.402344 70.027344 591.375 69.34375 590.179688 68.84375 C 588.988281 68.339844 587.695312 68.085938 586.296875 68.085938 C 584.898438 68.085938 583.554688 68.332031 582.382812 68.820312 C 581.207031 69.300781 580.195312 69.984375 579.363281 70.835938 C 578.519531 71.691406 577.867188 72.695312 577.390625 73.824219 C 576.917969 74.957031 576.683594 76.160156 576.683594 77.453125 L 576.683594 77.539062 C 576.683594 78.828125 576.917969 80.046875 577.390625 81.199219 C 577.871094 82.339844 578.53125 83.34375 579.40625 84.207031 C 580.28125 85.058594 581.304688 85.742188 582.476562 86.246094 C 583.652344 86.746094 584.964844 87 586.394531 87 Z M 586.394531 87 " fill-opacity="1" fill-rule="nonzero"/><path fill="#fe6735" d="M 623.011719 93.0625 C 618.710938 93.0625 615.316406 91.941406 612.851562 89.710938 C 610.378906 87.480469 609.152344 84.140625 609.152344 79.691406 L 609.152344 62.496094 L 616.203125 62.496094 L 616.203125 79.511719 C 616.203125 81.976562 616.8125 83.832031 618.027344 85.082031 C 619.253906 86.328125 620.941406 86.949219 623.117188 86.949219 C 625.292969 86.949219 626.980469 86.351562 628.195312 85.144531 C 629.421875 83.941406 630.03125 82.136719 630.03125 79.734375 L 630.03125 62.496094 L 637.082031 62.496094 L 637.082031 79.480469 C 637.082031 81.773438 636.753906 83.757812 636.101562 85.453125 C 635.449219 87.140625 634.511719 88.558594 633.285156 89.691406 C 632.070312 90.820312 630.585938 91.664062 628.847656 92.21875 C 627.109375 92.773438 625.175781 93.0625 623.042969 93.0625 Z M 623.011719 93.0625 " fill-opacity="1" fill-rule="nonzero"/><path fill="#fe6735" d="M 644.242188 62.484375 L 658.878906 62.484375 C 662.933594 62.484375 666.050781 63.507812 668.214844 65.535156 C 670.039062 67.253906 670.957031 69.546875 670.957031 72.417969 L 670.957031 72.503906 C 670.957031 74.933594 670.328125 76.917969 669.058594 78.457031 C 667.800781 79.992188 666.144531 81.113281 664.097656 81.835938 L 671.917969 92.582031 L 663.679688 92.582031 L 656.820312 82.957031 L 651.285156 82.957031 L 651.285156 92.582031 L 644.230469 92.582031 L 644.230469 62.484375 Z M 658.433594 77.113281 C 660.171875 77.113281 661.503906 76.726562 662.433594 75.960938 C 663.363281 75.179688 663.832031 74.144531 663.832031 72.855469 L 663.832031 72.769531 C 663.832031 71.339844 663.339844 70.261719 662.359375 69.546875 C 661.378906 68.832031 660.023438 68.46875 658.28125 68.46875 L 651.285156 68.46875 L 651.285156 77.113281 Z M 658.433594 77.113281 " fill-opacity="1" fill-rule="nonzero"/><path fill="#fe6735" d="M 548.261719 131.523438 C 545.820312 131.523438 543.429688 131.128906 541.070312 130.339844 C 538.722656 129.550781 536.589844 128.34375 534.667969 126.710938 L 538.832031 122.027344 C 540.304688 123.148438 541.796875 124.035156 543.34375 124.695312 C 544.878906 125.359375 546.566406 125.6875 548.402344 125.6875 C 549.875 125.6875 551.003906 125.441406 551.816406 124.941406 C 552.625 124.441406 553.03125 123.746094 553.03125 122.859375 L 553.03125 122.765625 C 553.03125 122.339844 552.945312 121.964844 552.773438 121.632812 C 552.605469 121.304688 552.285156 120.992188 551.816406 120.714844 C 551.34375 120.429688 550.695312 120.152344 549.851562 119.863281 C 549.007812 119.574219 547.921875 119.265625 546.578125 118.945312 C 544.953125 118.570312 543.492188 118.15625 542.171875 117.707031 C 540.859375 117.25 539.75 116.683594 538.832031 116.011719 C 537.921875 115.339844 537.207031 114.496094 536.695312 113.484375 C 536.195312 112.480469 535.9375 111.230469 535.9375 109.738281 L 535.9375 109.652344 C 535.9375 108.277344 536.214844 107.039062 536.761719 105.941406 C 537.316406 104.839844 538.09375 103.878906 539.074219 103.082031 C 540.066406 102.28125 541.242188 101.652344 542.617188 101.222656 C 543.996094 100.796875 545.507812 100.582031 547.164062 100.582031 C 549.511719 100.582031 551.664062 100.914062 553.640625 101.574219 C 555.601562 102.238281 557.417969 103.1875 559.058594 104.414062 L 555.398438 109.394531 C 553.96875 108.480469 552.5625 107.765625 551.183594 107.242188 C 549.808594 106.707031 548.433594 106.441406 547.054688 106.441406 C 545.679688 106.441406 544.65625 106.695312 543.972656 107.199219 C 543.28125 107.699219 542.9375 108.320312 542.9375 109.066406 L 542.9375 109.160156 C 542.9375 109.640625 543.035156 110.070312 543.238281 110.429688 C 543.441406 110.792969 543.792969 111.113281 544.304688 111.402344 C 544.828125 111.691406 545.53125 111.957031 546.4375 112.222656 C 547.335938 112.480469 548.476562 112.777344 549.851562 113.121094 C 551.472656 113.523438 552.914062 113.972656 554.171875 114.476562 C 555.441406 114.976562 556.507812 115.585938 557.375 116.277344 C 558.25 116.980469 558.898438 117.804688 559.347656 118.753906 C 559.785156 119.703125 560.007812 120.824219 560.007812 122.144531 L 560.007812 122.230469 C 560.007812 123.726562 559.722656 125.046875 559.132812 126.210938 C 558.558594 127.375 557.746094 128.34375 556.710938 129.132812 C 555.675781 129.925781 554.441406 130.519531 553.011719 130.9375 C 551.582031 131.355469 549.992188 131.554688 548.242188 131.554688 Z M 548.261719 131.523438 " fill-opacity="1" fill-rule="nonzero"/><path fill="#fe6735" d="M 566.164062 101.011719 L 579.246094 101.011719 C 581.164062 101.011719 582.882812 101.265625 584.386719 101.769531 C 585.902344 102.269531 587.183594 102.984375 588.230469 103.902344 C 589.285156 104.820312 590.097656 105.90625 590.660156 107.1875 C 591.226562 108.457031 591.515625 109.867188 591.515625 111.414062 L 591.515625 111.507812 C 591.515625 113.257812 591.171875 114.785156 590.5 116.105469 C 589.828125 117.417969 588.910156 118.527344 587.738281 119.414062 C 586.566406 120.300781 585.1875 120.972656 583.609375 121.421875 C 582.039062 121.859375 580.355469 122.082031 578.550781 122.082031 L 573.195312 122.082031 L 573.195312 131.117188 L 566.144531 131.117188 L 566.144531 101.019531 Z M 578.785156 116.183594 C 580.558594 116.183594 581.933594 115.746094 582.90625 114.871094 C 583.886719 113.996094 584.378906 112.917969 584.378906 111.617188 L 584.378906 111.53125 C 584.378906 110.035156 583.867188 108.917969 582.839844 108.136719 C 581.828125 107.359375 580.429688 106.972656 578.660156 106.972656 L 573.21875 106.972656 L 573.21875 116.171875 L 578.796875 116.171875 Z M 578.785156 116.183594 " fill-opacity="1" fill-rule="nonzero"/><path fill="#fe6735" d="M 612.296875 131.609375 C 609.824219 131.609375 607.550781 131.203125 605.480469 130.394531 C 603.402344 129.570312 601.609375 128.472656 600.09375 127.074219 C 598.589844 125.6875 597.414062 124.054688 596.574219 122.179688 C 595.730469 120.300781 595.3125 118.292969 595.3125 116.140625 L 595.3125 116.054688 C 595.3125 113.910156 595.738281 111.894531 596.59375 110.015625 C 597.445312 108.136719 598.621094 106.484375 600.136719 105.074219 C 601.652344 103.65625 603.453125 102.535156 605.535156 101.726562 C 607.625 100.902344 609.910156 100.5 612.382812 100.5 C 614.859375 100.5 617.132812 100.902344 619.203125 101.726562 C 621.273438 102.535156 623.0625 103.644531 624.578125 105.03125 C 626.09375 106.417969 627.269531 108.0625 628.109375 109.941406 C 628.953125 111.816406 629.371094 113.824219 629.371094 115.980469 L 629.371094 116.066406 C 629.371094 118.210938 628.941406 120.226562 628.078125 122.101562 C 627.226562 123.980469 626.039062 125.625 624.527344 127.042969 C 623.019531 128.460938 621.21875 129.570312 619.136719 130.394531 C 617.046875 131.203125 614.761719 131.609375 612.296875 131.609375 Z M 612.382812 125.515625 C 613.78125 125.515625 615.082031 125.273438 616.269531 124.792969 C 617.453125 124.300781 618.464844 123.628906 619.308594 122.777344 C 620.152344 121.910156 620.800781 120.917969 621.273438 119.789062 C 621.75 118.65625 621.988281 117.441406 621.988281 116.148438 L 621.988281 116.066406 C 621.988281 114.773438 621.75 113.558594 621.273438 112.414062 C 620.800781 111.261719 620.128906 110.261719 619.253906 109.40625 C 618.390625 108.542969 617.367188 107.859375 616.171875 107.359375 C 614.976562 106.855469 613.6875 106.601562 612.289062 106.601562 C 610.890625 106.601562 609.546875 106.847656 608.371094 107.335938 C 607.199219 107.816406 606.183594 108.5 605.351562 109.355469 C 604.511719 110.207031 603.859375 111.210938 603.378906 112.339844 C 602.910156 113.472656 602.675781 114.675781 602.675781 115.96875 L 602.675781 116.054688 C 602.675781 117.34375 602.910156 118.5625 603.378906 119.714844 C 603.859375 120.855469 604.519531 121.859375 605.394531 122.722656 C 606.269531 123.574219 607.296875 124.257812 608.46875 124.761719 C 609.640625 125.261719 610.953125 125.515625 612.382812 125.515625 Z M 612.382812 125.515625 " fill-opacity="1" fill-rule="nonzero"/><path fill="#fe6735" d="M 635.632812 101.011719 L 650.269531 101.011719 C 654.324219 101.011719 657.441406 102.035156 659.605469 104.0625 C 661.429688 105.78125 662.347656 108.074219 662.347656 110.945312 L 662.347656 111.027344 C 662.347656 113.460938 661.71875 115.445312 660.449219 116.980469 C 659.191406 118.519531 657.535156 119.640625 655.488281 120.363281 L 663.308594 131.109375 L 655.070312 131.109375 L 648.210938 121.484375 L 642.675781 121.484375 L 642.675781 131.109375 L 635.621094 131.109375 L 635.621094 101.011719 Z M 649.824219 115.628906 C 651.5625 115.628906 652.894531 115.242188 653.824219 114.476562 C 654.75 113.695312 655.222656 112.660156 655.222656 111.371094 L 655.222656 111.285156 C 655.222656 109.855469 654.730469 108.777344 653.75 108.0625 C 652.765625 107.347656 651.410156 106.984375 649.671875 106.984375 L 642.675781 106.984375 L 642.675781 115.628906 Z M 649.824219 115.628906 " fill-opacity="1" fill-rule="nonzero"/><path fill="#fe6735" d="M 676.175781 107.113281 L 666.433594 107.113281 L 666.433594 101 L 692.980469 101 L 692.980469 107.113281 L 683.226562 107.113281 L 683.226562 131.097656 L 676.175781 131.097656 Z M 676.175781 107.113281 " fill-opacity="1" fill-rule="nonzero"/><path fill="#fe6735" d="M 709.773438 131.523438 C 707.328125 131.523438 704.9375 131.128906 702.582031 130.339844 C 700.234375 129.550781 698.101562 128.34375 696.179688 126.710938 L 700.339844 122.027344 C 701.8125 123.148438 703.308594 124.035156 704.855469 124.695312 C 706.390625 125.359375 708.078125 125.6875 709.910156 125.6875 C 711.382812 125.6875 712.515625 125.441406 713.324219 124.941406 C 714.136719 124.441406 714.542969 123.746094 714.542969 122.859375 L 714.542969 122.765625 C 714.542969 122.339844 714.457031 121.964844 714.285156 121.632812 C 714.113281 121.304688 713.792969 120.992188 713.324219 120.714844 C 712.855469 120.429688 712.207031 120.152344 711.363281 119.863281 C 710.519531 119.574219 709.429688 119.265625 708.085938 118.945312 C 706.464844 118.570312 705.003906 118.15625 703.679688 117.707031 C 702.367188 117.25 701.257812 116.683594 700.339844 116.011719 C 699.433594 115.339844 698.71875 114.496094 698.207031 113.484375 C 697.707031 112.480469 697.449219 111.230469 697.449219 109.738281 L 697.449219 109.652344 C 697.449219 108.277344 697.726562 107.039062 698.269531 105.941406 C 698.824219 104.839844 699.605469 103.878906 700.585938 103.082031 C 701.578125 102.28125 702.753906 101.652344 704.128906 101.222656 C 705.503906 100.796875 707.019531 100.582031 708.671875 100.582031 C 711.019531 100.582031 713.175781 100.914062 715.148438 101.574219 C 717.113281 102.238281 718.925781 103.1875 720.570312 104.414062 L 716.910156 109.394531 C 715.480469 108.480469 714.074219 107.765625 712.695312 107.242188 C 711.320312 106.707031 709.941406 106.441406 708.566406 106.441406 C 707.191406 106.441406 706.167969 106.695312 705.484375 107.199219 C 704.789062 107.699219 704.449219 108.320312 704.449219 109.066406 L 704.449219 109.160156 C 704.449219 109.640625 704.542969 110.070312 704.746094 110.429688 C 704.949219 110.792969 705.300781 111.113281 705.8125 111.402344 C 706.335938 111.691406 707.042969 111.957031 707.949219 112.222656 C 708.84375 112.480469 709.984375 112.777344 711.363281 113.121094 C 712.984375 113.523438 714.425781 113.972656 715.683594 114.476562 C 716.953125 114.976562 718.019531 115.585938 718.882812 116.277344 C 719.757812 116.980469 720.410156 117.804688 720.859375 118.753906 C 721.296875 119.703125 721.519531 120.824219 721.519531 122.144531 L 721.519531 122.230469 C 721.519531 123.726562 721.230469 125.046875 720.644531 126.210938 C 720.066406 127.375 719.257812 128.34375 718.222656 129.132812 C 717.1875 129.925781 715.949219 130.519531 714.519531 130.9375 C 713.089844 131.355469 711.5 131.554688 709.75 131.554688 Z M 709.773438 131.523438 " fill-opacity="1" fill-rule="nonzero"/><path fill="#fe6735" d="M 534.667969 139.015625 L 549.542969 139.015625 C 553.234375 139.015625 556.03125 139.898438 557.917969 141.679688 C 559.390625 143.058594 560.117188 144.765625 560.117188 146.800781 L 560.117188 146.886719 C 560.117188 147.753906 560 148.507812 559.761719 149.171875 C 559.539062 149.832031 559.230469 150.429688 558.855469 150.964844 C 558.472656 151.496094 558.023438 151.957031 557.523438 152.359375 C 557.023438 152.757812 556.476562 153.097656 555.902344 153.386719 C 557.769531 154.046875 559.230469 154.941406 560.296875 156.074219 C 561.363281 157.207031 561.90625 158.773438 561.90625 160.777344 L 561.90625 160.875 C 561.90625 162.25 561.621094 163.457031 561.054688 164.492188 C 560.488281 165.527344 559.6875 166.378906 558.632812 167.074219 C 557.585938 167.757812 556.316406 168.269531 554.835938 168.621094 C 553.351562 168.960938 551.707031 169.132812 549.90625 169.132812 L 534.667969 169.132812 Z M 553.105469 147.914062 C 553.105469 146.910156 552.710938 146.140625 551.921875 145.609375 C 551.132812 145.074219 549.980469 144.808594 548.496094 144.808594 L 541.539062 144.808594 L 541.539062 151.175781 L 548.039062 151.175781 C 549.585938 151.175781 550.824219 150.921875 551.742188 150.417969 C 552.65625 149.917969 553.117188 149.105469 553.117188 147.988281 L 553.117188 147.902344 Z M 554.898438 159.957031 C 554.898438 158.953125 554.480469 158.15625 553.660156 157.578125 C 552.828125 156.992188 551.503906 156.691406 549.671875 156.691406 L 541.519531 156.691406 L 541.519531 163.320312 L 549.894531 163.320312 C 551.453125 163.320312 552.679688 163.050781 553.566406 162.527344 C 554.449219 161.996094 554.898438 161.175781 554.898438 160.054688 Z M 554.898438 159.957031 " fill-opacity="1" fill-rule="nonzero"/><path fill="#fe6735" d="M 567.710938 139.015625 L 592.113281 139.015625 L 592.113281 145.03125 L 574.765625 145.03125 L 574.765625 151.433594 L 590.054688 151.433594 L 590.054688 157.460938 L 574.765625 157.460938 L 574.765625 169.113281 L 567.710938 169.113281 Z M 567.710938 139.015625 " fill-opacity="1" fill-rule="nonzero"/><path fill="#fe6735" d="M 597.734375 139.015625 L 622.136719 139.015625 L 622.136719 145.03125 L 604.789062 145.03125 L 604.789062 151.433594 L 620.078125 151.433594 L 620.078125 157.460938 L 604.789062 157.460938 L 604.789062 169.113281 L 597.734375 169.113281 Z M 597.734375 139.015625 " fill-opacity="1" fill-rule="nonzero"/></svg>