<svg xmlns="http://www.w3.org/2000/svg" xmlns:xlink="http://www.w3.org/1999/xlink" width="770" zoomAndPan="magnify" viewBox="0 0 577.5 225" height="300" preserveAspectRatio="xMidYMid meet" version="1.0"><path fill="#fe6735" d="M 121.640625 146.070312 C 115.890625 143.355469 112.957031 139.65625 112.84375 134.964844 C 112.707031 132.6875 113.363281 130.476562 114.816406 128.328125 C 116.261719 126.1875 118.289062 124.582031 120.894531 123.507812 C 123.492188 122.441406 126.300781 122.265625 129.320312 123.011719 C 132.097656 123.613281 134.453125 124.6875 136.386719 126.226562 C 138.320312 127.765625 139.890625 129.425781 141.085938 131.199219 C 142.28125 132.984375 143.570312 135.238281 144.964844 137.988281 C 146.21875 140.332031 147.308594 142.160156 148.214844 143.464844 C 149.128906 144.765625 150.28125 145.710938 151.6875 146.273438 C 153.097656 146.839844 154.773438 146.898438 156.738281 146.425781 C 158.269531 146.089844 159.550781 145.46875 160.585938 144.570312 C 161.621094 143.667969 162.382812 142.640625 162.886719 141.5 C 163.386719 140.363281 163.609375 139.191406 163.554688 137.980469 C 163.449219 135.910156 162.34375 134.125 160.21875 132.65625 C 158.09375 131.1875 154.765625 129.472656 150.21875 127.53125 C 145.609375 125.519531 142.367188 124.011719 140.460938 123.011719 C 132.054688 118.65625 126.460938 114.269531 123.691406 109.84375 C 120.917969 105.425781 120.078125 100.460938 121.183594 94.96875 C 122.121094 90.414062 124.460938 86.574219 128.191406 83.460938 C 131.921875 80.34375 136.492188 78.050781 141.917969 76.574219 C 147.332031 75.105469 153.066406 74.503906 159.113281 74.769531 C 163.371094 74.96875 167.410156 75.691406 171.25 76.925781 C 175.078125 78.167969 178.101562 79.855469 180.304688 82.003906 C 182.503906 84.144531 183.375 86.523438 182.917969 89.132812 C 182.664062 90.542969 182.054688 91.914062 181.089844 93.253906 C 180.121094 94.59375 178.8125 95.714844 177.183594 96.621094 C 175.542969 97.527344 173.664062 97.945312 171.53125 97.878906 C 169.183594 97.878906 167.210938 97.375 165.613281 96.371094 C 164.011719 95.363281 162.753906 94.160156 161.828125 92.753906 C 160.898438 91.34375 159.785156 89.4375 158.46875 87.023438 C 157.035156 84.144531 155.695312 82.019531 154.46875 80.648438 C 153.234375 79.277344 151.589844 78.523438 149.539062 78.386719 C 147.21875 78.25 145.246094 78.554688 143.609375 79.292969 C 141.96875 80.03125 140.742188 80.984375 139.9375 82.15625 C 139.121094 83.332031 138.746094 84.519531 138.800781 85.730469 C 138.914062 87.742188 140.105469 89.429688 142.382812 90.800781 C 144.652344 92.171875 148.359375 93.832031 153.507812 95.777344 C 155.511719 96.582031 157.453125 97.351562 159.335938 98.089844 C 165.527344 100.566406 170.242188 103.316406 173.457031 106.332031 C 176.679688 109.347656 178.734375 112.617188 179.617188 116.128906 C 180.503906 119.648438 180.457031 123.613281 179.472656 128.03125 C 178.398438 132.992188 176.078125 137.210938 172.519531 140.699219 C 168.957031 144.179688 164.546875 146.777344 159.289062 148.492188 C 154.027344 150.195312 148.472656 150.914062 142.632812 150.644531 C 134.382812 150.3125 127.382812 148.789062 121.632812 146.078125 Z M 121.640625 146.070312 " fill-opacity="1" fill-rule="nonzero"/><path fill="#fe6735" d="M 291.84375 111.816406 C 291.195312 111.625 290.539062 111.449219 289.871094 111.285156 C 290.304688 111.183594 290.738281 111.09375 291.15625 110.988281 C 295.886719 109.8125 299.863281 107.863281 303.078125 105.128906 C 306.285156 102.402344 308.289062 98.792969 309.078125 94.296875 C 309.871094 89.804688 309.125 86.285156 306.925781 83.308594 C 304.714844 80.335938 301.441406 78.160156 297.089844 76.78125 C 292.734375 75.394531 287.761719 74.707031 282.171875 74.707031 L 232.515625 74.707031 L 232.136719 76.886719 C 233.796875 76.886719 235.160156 77.441406 236.25 78.546875 C 237.339844 79.652344 238.078125 81.121094 238.480469 82.949219 C 238.882812 84.777344 238.890625 86.773438 238.519531 88.914062 L 234.824219 109.859375 L 224.96875 109.859375 C 222.035156 109.859375 218.785156 107.199219 216.460938 104.375 C 211.0625 97.816406 212.585938 87.292969 212.820312 85.890625 C 212.570312 87.292969 210.464844 97.742188 202.660156 104.375 C 195.011719 110.878906 182.796875 111.277344 182.796875 111.277344 C 182.796875 111.277344 194.792969 111.582031 200.230469 118.175781 C 205.882812 125.039062 203.839844 136.828125 203.839844 136.828125 C 203.839844 136.828125 206.277344 124.773438 214.03125 118.175781 C 217.292969 115.402344 221.585938 112.625 224.984375 112.625 L 234.320312 112.761719 L 230.15625 136.394531 C 229.773438 138.535156 229.066406 140.523438 228.015625 142.359375 C 226.964844 144.195312 225.699219 145.664062 224.230469 146.769531 C 222.761719 147.875 221.191406 148.429688 219.53125 148.429688 L 219.148438 150.609375 L 270.050781 150.609375 C 275.511719 150.609375 280.640625 149.953125 285.429688 148.636719 C 290.226562 147.324219 294.339844 145.148438 297.777344 142.109375 C 301.210938 139.070312 303.367188 135.09375 304.226562 130.1875 C 305.082031 125.351562 304.328125 121.414062 301.957031 118.367188 C 299.589844 115.328125 296.222656 113.148438 291.859375 111.839844 Z M 271.371094 77.710938 C 274.546875 77.710938 277.003906 79.058594 278.742188 81.753906 C 280.480469 84.449219 280.882812 88.425781 279.953125 93.671875 C 278.957031 99.339844 277.144531 103.453125 274.515625 106.003906 C 271.886719 108.5625 268.917969 109.84375 265.597656 109.84375 L 262.488281 109.84375 L 268.15625 77.710938 Z M 268.527344 143.539062 C 265.800781 146.238281 262.679688 147.585938 259.160156 147.585938 L 255.847656 147.585938 L 261.984375 112.753906 L 265.300781 112.753906 C 267.4375 112.753906 269.304688 113.371094 270.882812 114.621094 C 272.457031 115.859375 273.59375 117.765625 274.285156 120.324219 C 274.972656 122.882812 275.003906 125.953125 274.371094 129.546875 C 273.199219 136.183594 271.253906 140.851562 268.535156 143.539062 Z M 268.527344 143.539062 " fill-opacity="1" fill-rule="nonzero"/><path fill="#fe6735" d="M 318.320312 74.28125 L 317.9375 76.460938 C 319.597656 76.460938 320.945312 77.015625 321.996094 78.121094 C 323.046875 79.226562 323.773438 80.695312 324.175781 82.523438 C 324.578125 84.351562 324.585938 86.347656 324.214844 88.488281 L 315.84375 135.960938 C 315.460938 138.101562 314.753906 140.089844 313.703125 141.925781 C 312.652344 143.761719 311.410156 145.230469 309.972656 146.335938 C 308.53125 147.441406 306.984375 147.996094 305.324219 147.996094 L 304.945312 150.175781 L 353.5625 150.175781 L 353.941406 147.996094 C 351.519531 147.996094 349.457031 147.441406 347.757812 146.335938 C 346.050781 145.230469 344.824219 143.761719 344.078125 141.925781 C 343.332031 140.097656 343.140625 138.109375 343.523438 135.960938 L 347.582031 112.953125 L 349.339844 112.953125 C 353.117188 113.089844 356.027344 113.589844 358.09375 114.460938 C 360.148438 115.328125 361.613281 117.117188 362.480469 119.851562 C 363.339844 122.578125 363.289062 126.707031 362.320312 132.238281 L 364.910156 132.238281 L 372.09375 91.503906 L 369.707031 91.503906 C 368.960938 95.722656 367.628906 99.257812 365.710938 102.128906 C 363.789062 105 361.460938 107.125 358.734375 108.503906 C 356 109.890625 352.996094 110.644531 349.722656 110.789062 L 347.960938 110.789062 L 352.609375 84.457031 C 352.960938 82.453125 353.722656 80.710938 354.878906 79.226562 C 356.035156 77.738281 357.757812 76.992188 360.035156 76.992188 C 361.902344 76.992188 363.644531 77.273438 365.28125 77.824219 C 368.679688 78.929688 371.503906 81.039062 373.753906 84.144531 C 376.007812 87.253906 377.773438 90.9375 379.070312 95.183594 C 380.355469 99.433594 381.1875 104.015625 381.566406 108.921875 L 383.746094 108.921875 L 387.675781 74.296875 L 318.328125 74.296875 Z M 318.320312 74.28125 " fill-opacity="1" fill-rule="nonzero"/><path fill="#fe6735" d="M 464.101562 74.28125 L 394.75 74.28125 L 394.371094 76.460938 C 396.03125 76.460938 397.378906 77.015625 398.429688 78.121094 C 399.480469 79.226562 400.207031 80.695312 400.609375 82.523438 C 401.011719 84.351562 401.019531 86.347656 400.648438 88.488281 L 392.277344 135.960938 C 391.894531 138.101562 391.1875 140.089844 390.136719 141.925781 C 389.085938 143.761719 387.84375 145.230469 386.402344 146.335938 C 384.964844 147.441406 383.417969 147.996094 381.757812 147.996094 L 381.378906 150.175781 L 429.996094 150.175781 L 430.375 147.996094 C 427.953125 147.996094 425.890625 147.441406 424.191406 146.335938 C 422.484375 145.230469 421.257812 143.761719 420.511719 141.925781 C 419.765625 140.097656 419.574219 138.109375 419.957031 135.960938 L 424.015625 112.953125 L 425.773438 112.953125 C 429.550781 113.089844 432.460938 113.589844 434.527344 114.460938 C 436.582031 115.328125 438.046875 117.117188 438.914062 119.851562 C 439.773438 122.578125 439.71875 126.707031 438.753906 132.238281 L 441.34375 132.238281 L 448.527344 91.503906 L 446.140625 91.503906 C 445.394531 95.722656 444.0625 99.257812 442.144531 102.128906 C 440.222656 105 437.894531 107.125 435.164062 108.503906 C 432.429688 109.890625 429.429688 110.644531 426.15625 110.789062 L 424.394531 110.789062 L 429.042969 84.457031 C 429.390625 82.453125 430.152344 80.710938 431.3125 79.226562 C 432.46875 77.738281 434.191406 76.992188 436.46875 76.992188 C 438.335938 76.992188 440.078125 77.273438 441.714844 77.824219 C 445.113281 78.929688 447.9375 81.039062 450.1875 84.144531 C 452.441406 87.253906 454.207031 90.9375 455.503906 95.183594 C 456.789062 99.433594 457.621094 104.015625 458 108.921875 L 460.179688 108.921875 L 464.109375 74.296875 Z M 464.101562 74.28125 " fill-opacity="1" fill-rule="nonzero"/><path fill="#fe6735" d="M 212.828125 85.722656 C 212.828125 85.722656 212.820312 85.78125 212.796875 85.882812 C 212.8125 85.773438 212.828125 85.722656 212.828125 85.722656 Z M 212.828125 85.722656 " fill-opacity="1" fill-rule="nonzero"/></svg>